<?xml version="1.0" encoding="UTF-8" standalone="no"?>
<!-- Created with Inkscape (http://www.inkscape.org/) -->

<svg
   xmlns:dc="http://purl.org/dc/elements/1.1/"
   xmlns:cc="http://creativecommons.org/ns#"
   xmlns:rdf="http://www.w3.org/1999/02/22-rdf-syntax-ns#"
   xmlns:svg="http://www.w3.org/2000/svg"
   xmlns="http://www.w3.org/2000/svg"
   xmlns:sodipodi="http://sodipodi.sourceforge.net/DTD/sodipodi-0.dtd"
   xmlns:inkscape="http://www.inkscape.org/namespaces/inkscape"
   width="137.5123mm"
   height="139.63342mm"
   viewBox="0 0 137.5123 139.63342"
   version="1.1"
   id="svg6049"
   inkscape:version="0.92.2 (5c3e80d, 2017-08-06)"
   sodipodi:docname="sunflower.svg">
  <defs
     id="defs6043" />
  <sodipodi:namedview
     id="base"
     pagecolor="#ffffff"
     bordercolor="#666666"
     borderopacity="1.0"
     inkscape:pageopacity="0.0"
     inkscape:pageshadow="2"
     inkscape:zoom="0.58488227"
     inkscape:cx="31.800733"
     inkscape:cy="390.36968"
     inkscape:document-units="mm"
     inkscape:current-layer="layer1"
     showgrid="false"
     fit-margin-top="0"
     fit-margin-left="0"
     fit-margin-right="0"
     fit-margin-bottom="0"
     inkscape:window-width="1366"
     inkscape:window-height="721"
     inkscape:window-x="-4"
     inkscape:window-y="-4"
     inkscape:window-maximized="1" />
  <metadata
     id="metadata6046">
    <rdf:RDF>
      <cc:Work
         rdf:about="">
        <dc:format>image/svg+xml</dc:format>
        <dc:type
           rdf:resource="http://purl.org/dc/dcmitype/StillImage" />
        <dc:title></dc:title>
      </cc:Work>
    </rdf:RDF>
  </metadata>
  <g
     inkscape:label="Layer 1"
     inkscape:groupmode="layer"
     id="layer1"
     transform="translate(415.78901,-394.20401)">
    <path
       style="color:#000000;display:inline;overflow:visible;visibility:visible;fill:#edd400;fill-rule:evenodd;stroke:#c4a000;stroke-width:0.73999453;stroke-linecap:butt;stroke-linejoin:miter;stroke-miterlimit:4;stroke-dasharray:none;stroke-dashoffset:0;stroke-opacity:1;marker:none;marker-start:none;marker-mid:none;marker-end:none;enable-background:accumulate"
       d="m -347.03274,394.67934 c -5.04575,4.06929 -7.53471,11.48127 -8.6234,20.43878 -4.08622,-8.04512 -8.95951,-14.15894 -15.09282,-16.25727 -3.34963,5.54964 -3.15355,13.36586 -1.11296,22.15549 -6.59131,-6.16222 -13.26161,-10.24051 -19.74263,-10.11455 -1.24954,6.36061 1.60812,13.63847 6.53197,21.20015 -8.30152,-3.53633 -15.9645,-5.08734 -22.01166,-2.75235 1.00129,6.4045 6.17587,12.266 13.38906,17.68759 -9.01034,-0.48371 -16.74173,0.67966 -21.62558,4.94211 3.13136,5.67583 9.99865,9.41393 18.63112,12.04157 -8.63249,2.6271 -15.49974,6.36458 -18.63126,12.04032 4.88372,4.26254 12.61527,5.42671 21.62572,4.94344 -7.21327,5.42115 -12.38804,11.28181 -13.38945,17.68631 6.04708,2.33513 13.71063,0.7846 22.01245,-2.75127 -4.92414,7.56131 -7.78233,14.83846 -6.5329,21.19925 6.4811,0.12605 13.15211,-3.9522 19.74395,-10.11437 -2.04106,8.78954 -2.23795,16.60549 1.11164,22.15536 6.133,-2.09802 11.00678,-8.2114 15.09335,-16.25563 1.08885,8.95649 3.57797,16.3683 8.6234,20.4378 5.04563,-4.07013 7.53393,-11.48203 8.62219,-20.43905 4.0866,8.04454 8.96062,14.1585 15.09389,16.25701 3.34931,-5.55036 3.15251,-13.36635 1.11163,-22.15549 6.59158,6.16182 13.26291,10.24002 19.74409,10.11437 1.24898,-6.36105 -1.60927,-13.6383 -6.53303,-21.19925 8.30146,3.5357 15.96529,5.08608 22.01259,2.75127 -1.00194,-6.40455 -6.17661,-12.26534 -13.38933,-17.68631 9.01001,0.48314 16.74185,-0.68103 21.62586,-4.94344 -3.13201,-5.67561 -9.99914,-9.41309 -18.631,-12.04019 8.63185,-2.62754 15.49908,-6.36601 18.63073,-12.0417 -4.88434,-4.26219 -12.61567,-5.42565 -21.62559,-4.94197 7.21271,-5.42142 12.38734,-11.28323 13.38893,-17.68773 -6.04755,-2.33464 -13.71062,-0.78331 -22.01179,2.75275 4.9236,-7.5615 7.7814,-14.83967 6.5321,-21.20055 -6.48127,-0.12547 -13.15164,3.95309 -19.74276,10.11495 2.04049,-8.78941 2.23657,-16.60598 -1.11296,-22.15603 -6.13364,2.09905 -11.0068,8.21359 -15.09309,16.2588 -1.08813,-8.95814 -3.57647,-16.37044 -8.62246,-20.44017 z"
       id="path6012"
       inkscape:connector-curvature="0" />
    <circle
       r="37.573494"
       cy="464.02069"
       cx="-347.03287"
       id="circle6031"
       style="opacity:1;fill:#8f5902;fill-opacity:1;stroke:none;stroke-width:0.69674748;stroke-linecap:round;stroke-linejoin:round;stroke-miterlimit:4;stroke-dasharray:none;stroke-dashoffset:0;stroke-opacity:1" />
  </g>
</svg>
